<?xml version="1.0" encoding="UTF-8"?>
<svg width="700pt" height="700pt" version="1.1" viewBox="0 0 700 700" xmlns="http://www.w3.org/2000/svg">
 <path fill="#008000" d="m350 560c-154.39 0-280-125.61-280-280s125.61-280 280-280 280 125.61 280 280-125.61 280-280 280zm0-525c-135.1 0-245 109.9-245 245s109.9 245 245 245 245-109.9 245-245-109.9-245-245-245zm0 385c-116.29 0-138.21-61.828-139.11-64.469-3.0625-9.1719 1.8906-19.094 11.059-22.137 9.1016-3.0469 18.848 1.8008 22.016 10.711 0.92969 2.3086 17.711 40.895 106.04 40.895 89.094 0 105.37-39.254 106.05-40.934 3.4297-8.8359 13.371-13.527 22.312-10.324 8.9414 3.2383 13.738 12.773 10.727 21.789-0.875 2.6406-22.801 64.469-139.09 64.469zm87.5-105c-9.6758 0-17.5-7.8242-17.5-17.5v-87.5c0-9.6602 7.8242-17.5 17.5-17.5s17.5 7.8398 17.5 17.5v87.5c0 9.6758-7.8242 17.5-17.5 17.5zm-175 0c-9.6602 0-17.5-7.8242-17.5-17.5v-87.5c0-9.6602 7.8398-17.5 17.5-17.5s17.5 7.8398 17.5 17.5v87.5c0 9.6758-7.8398 17.5-17.5 17.5z"/>
</svg>
