<?xml version="1.0" encoding="UTF-8"?>
<svg width="700pt" height="700pt" version="1.1" viewBox="0 0 700 700" xmlns="http://www.w3.org/2000/svg">
 <path fill="#ffff00" d="m350 560c-154.39 0-280-125.61-280-280s125.61-280 280-280 280 125.61 280 280-125.61 280-280 280zm0-525c-135.1 0-245 109.9-245 245s109.9 245 245 245 245-109.9 245-245-109.9-245-245-245zm70.316 382.92c-20.336 0-45.781-4.2539-76.809-16.66-73.852-29.539-102.74-4.6719-103.93-3.5703-7.0352 6.3359-18.059 6.1094-24.586-0.78906-6.5273-6.8945-6.5625-17.551 0.14062-24.273 1.75-1.7656 44.258-42.719 141.38-3.8867 73.887 29.574 102.74 4.6719 103.93 3.5703 7.0352-6.3164 18.059-6.0898 24.57 0.78906 6.5469 6.8945 6.5781 17.551-0.14062 24.273-1.1914 1.1914-21.281 20.547-64.559 20.547zm17.184-102.92c-9.6758 0-17.5-7.8242-17.5-17.5v-87.5c0-9.6602 7.8242-17.5 17.5-17.5s17.5 7.8398 17.5 17.5v87.5c0 9.6758-7.8242 17.5-17.5 17.5zm-175 0c-9.6602 0-17.5-7.8242-17.5-17.5v-87.5c0-9.6602 7.8398-17.5 17.5-17.5s17.5 7.8398 17.5 17.5v87.5c0 9.6758-7.8398 17.5-17.5 17.5z"/>
</svg>
