<?xml version="1.0" encoding="UTF-8"?>
<svg width="700pt" height="700pt" version="1.1" viewBox="0 0 700 700" xmlns="http://www.w3.org/2000/svg">
 <path fill="#ff0000" d="m350 560c-154.39 0-280-125.61-280-280s125.61-280 280-280 280 125.61 280 280-125.61 280-280 280zm0-525c-135.1 0-245 109.9-245 245s109.9 245 245 245 245-109.9 245-245-109.9-245-245-245zm87.516 367.5c-6.3008 0-12.355-3.3945-15.488-9.3086-0.96094-1.6445-16.098-25.691-72.027-25.691-56.684 0-71.453 24.676-72.066 25.742-4.7266 8.207-15.227 11.41-23.574 6.9648-8.3633-4.4805-11.762-14.559-7.5234-23.031 2.293-4.582 24.625-44.676 103.16-44.676s100.87 40.094 103.16 44.676c4.3242 8.6445 0.82422 19.164-7.8242 23.484-2.5195 1.2461-5.1992 1.8398-7.8242 1.8398zm-0.015625-87.5c-9.6758 0-17.5-7.8242-17.5-17.5v-48.406c-21.523 7.7344-45.621 13.406-70 13.406-24.359 0-48.457-5.6719-70-13.406v48.406c0 9.6758-7.8398 17.5-17.5 17.5s-17.5-7.8242-17.5-17.5v-63.523c-26.336-13.266-44.031-26.371-45.5-27.477-7.7188-5.793-9.293-16.746-3.5-24.484 5.793-7.7344 16.766-9.2734 24.484-3.5352 0.66406 0.50781 66.359 49.02 129.52 49.02s128.85-48.512 129.5-49.016c7.7539-5.7734 18.707-4.1836 24.484 3.5352 5.793 7.7344 4.2344 18.691-3.5 24.484-1.4688 1.1016-19.145 14.227-45.5 27.477v63.52c0.015625 9.6758-7.8086 17.5-17.484 17.5z"/>
</svg>
